<mxfile host="65bd71144e">
    <diagram id="0D0ydRYfBa4L7qAgJoS2" name="Page-1">
        <mxGraphModel dx="642" dy="424" grid="1" gridSize="10" guides="1" tooltips="1" connect="1" arrows="1" fold="1" page="1" pageScale="1" pageWidth="850" pageHeight="1100" math="0" shadow="0">
            <root>
                <mxCell id="0"/>
                <mxCell id="1" parent="0"/>
                <mxCell id="2" value="Set Up Backend" style="rounded=0;whiteSpace=wrap;html=1;" vertex="1" parent="1">
                    <mxGeometry x="40" y="40" width="120" height="60" as="geometry"/>
                </mxCell>
                <mxCell id="3" value="Set Up React Components&lt;br&gt;Time: 16 hrs&lt;br&gt;Owner: Both" style="rounded=0;whiteSpace=wrap;html=1;" vertex="1" parent="1">
                    <mxGeometry x="40" y="220" width="120" height="70" as="geometry"/>
                </mxCell>
                <mxCell id="4" value="CSS&lt;br&gt;Time: 8 hrs&lt;br&gt;Owner: Logan" style="rounded=0;whiteSpace=wrap;html=1;" vertex="1" parent="1">
                    <mxGeometry x="40" y="320" width="120" height="60" as="geometry"/>
                </mxCell>
                <mxCell id="5" value="Set Up Routes&lt;br&gt;Time: 6 hrs&lt;br&gt;Owner: Joe" style="rounded=0;whiteSpace=wrap;html=1;" vertex="1" parent="1">
                    <mxGeometry x="90" y="110" width="120" height="60" as="geometry"/>
                </mxCell>
                <mxCell id="6" value="STRETCH GOALS:&lt;br&gt;1. Balance sheet&lt;br&gt;2. Good looking website&lt;br&gt;3. Add categories&lt;br&gt;4. Sign in/Sign Up" style="rounded=0;whiteSpace=wrap;html=1;" vertex="1" parent="1">
                    <mxGeometry x="426" y="40" width="120" height="200" as="geometry"/>
                </mxCell>
            </root>
        </mxGraphModel>
    </diagram>
</mxfile>